<svg width="19" height="19" viewBox="0 0 19 19" fill="none" xmlns="http://www.w3.org/2000/svg">
<path fill-rule="evenodd" clip-rule="evenodd" d="M9.49957 0.751488C4.54606 0.751488 0.530029 4.76775 0.530029 9.72195C0.530029 13.6851 3.09959 17.0472 6.66436 18.2326C7.11332 18.3157 7.27662 18.0394 7.27662 17.8009C7.27662 17.5884 7.2688 17.0247 7.26489 16.2753C4.76962 16.8179 4.24315 15.0727 4.24315 15.0727C3.83513 14.0365 3.24702 13.761 3.24702 13.761C2.43259 13.2048 3.30889 13.2156 3.30889 13.2156C4.20911 13.2794 4.68291 14.1398 4.68291 14.1398C5.48285 15.5106 6.78258 15.1138 7.29341 14.8857C7.3746 14.3049 7.6069 13.9105 7.86289 13.6858C5.87132 13.4594 3.7774 12.6899 3.7774 9.25275C3.7774 8.27318 4.12677 7.47232 4.70039 6.84511C4.60862 6.61925 4.30019 5.7073 4.78848 4.47174C4.78848 4.47174 5.5415 4.2307 7.25546 5.39197C7.97053 5.1921 8.73804 5.09228 9.50095 5.08929C10.2627 5.09251 11.0304 5.1921 11.7464 5.39197C13.4592 4.2307 14.2111 4.47174 14.2111 4.47174C14.7006 5.7073 14.3924 6.61925 14.3004 6.84511C14.8754 7.47232 15.2222 8.27318 15.2222 9.25275C15.2222 12.6979 13.1253 13.4569 11.127 13.6782C11.4486 13.9553 11.7356 14.5039 11.7356 15.3408C11.7356 16.5394 11.7248 17.5065 11.7248 17.8007C11.7248 18.041 11.886 18.3205 12.3414 18.2315C15.9023 17.0435 18.47 13.6839 18.47 9.72195C18.47 4.76775 14.454 0.751488 9.49957 0.751488V0.751488Z" fill="#8685EF" fill-opacity="0.7"/>
</svg>
