<svg width="22" height="24" viewBox="0 0 22 24" fill="none" xmlns="http://www.w3.org/2000/svg">
<path d="M8.837 1.78934C9.01131 1.3585 9.31032 0.989536 9.69569 0.729738C10.0811 0.46994 10.5352 0.331146 11 0.331146C11.4648 0.331146 11.9189 0.46994 12.3043 0.729738C12.6897 0.989536 12.9887 1.3585 13.163 1.78934C14.8882 2.2638 16.41 3.29149 17.4946 4.71456C18.5791 6.13763 19.1666 7.8774 19.1667 9.66667V15.1465L21.304 18.3525C21.4212 18.5282 21.4886 18.7324 21.4988 18.9434C21.509 19.1544 21.4618 19.3642 21.3622 19.5504C21.2625 19.7366 21.1142 19.8923 20.933 20.0009C20.7518 20.1094 20.5446 20.1667 20.3333 20.1667H15.0425C14.902 21.1386 14.4161 22.0274 13.6737 22.6703C12.9312 23.3131 11.9821 23.6669 11 23.6669C10.0179 23.6669 9.06877 23.3131 8.32635 22.6703C7.58393 22.0274 7.09797 21.1386 6.9575 20.1667H1.66667C1.45545 20.1667 1.24819 20.1094 1.06699 20.0009C0.885792 19.8923 0.737458 19.7366 0.637814 19.5504C0.538169 19.3642 0.490952 19.1544 0.5012 18.9434C0.511447 18.7324 0.578775 18.5282 0.696 18.3525L2.83333 15.1465V9.66667C2.83333 5.90534 5.37667 2.73667 8.837 1.78934ZM9.35033 20.1667C9.47083 20.5081 9.69425 20.8037 9.98981 21.0129C10.2854 21.222 10.6385 21.3343 11.0006 21.3343C11.3626 21.3343 11.7158 21.222 12.0114 21.0129C12.3069 20.8037 12.5303 20.5081 12.6508 20.1667H9.34917H9.35033ZM11 3.83334C9.4529 3.83334 7.96917 4.44792 6.87521 5.54188C5.78125 6.63584 5.16667 8.11957 5.16667 9.66667V15.5C5.16672 15.7305 5.09852 15.9558 4.97067 16.1475L3.84717 17.8333H18.1517L17.0282 16.1475C16.9007 15.9556 16.8329 15.7303 16.8333 15.5V9.66667C16.8333 8.11957 16.2188 6.63584 15.1248 5.54188C14.0308 4.44792 12.5471 3.83334 11 3.83334V3.83334Z" fill="#E3E3E3"/>
</svg>
