<svg width="23" height="24" viewBox="0 0 23 24" fill="none" xmlns="http://www.w3.org/2000/svg">
<path d="M21.9167 20.8333V12.6812C21.9168 12.1141 21.801 11.5529 21.5766 11.032C21.3522 10.5111 21.0238 10.0416 20.6115 9.65208L12.9313 2.39374C12.5445 2.02804 12.0324 1.82428 11.5 1.82428C10.9677 1.82428 10.4556 2.02804 10.0688 2.39374L2.38858 9.65208C1.97632 10.0416 1.64791 10.5111 1.42348 11.032C1.19904 11.5529 1.08331 12.1141 1.08337 12.6812V20.8333C1.08337 21.3859 1.30287 21.9158 1.69357 22.3065C2.08427 22.6972 2.61417 22.9167 3.16671 22.9167H19.8334C20.3859 22.9167 20.9158 22.6972 21.3065 22.3065C21.6972 21.9158 21.9167 21.3859 21.9167 20.8333Z" stroke="#E3E3E3" stroke-width="2.08333" stroke-linecap="round" stroke-linejoin="round"/>
</svg>
