<svg width="23" height="20" viewBox="0 0 23 20" fill="none" xmlns="http://www.w3.org/2000/svg">
<path d="M11.5 19.625C11.352 19.6258 11.2052 19.5975 11.0681 19.5415C10.9311 19.4855 10.8064 19.403 10.7013 19.2987L1.96004 10.5462C0.863571 9.43831 0.248535 7.9425 0.248535 6.38374C0.248535 4.82497 0.863571 3.32916 1.96004 2.22124C3.06508 1.11931 4.56197 0.500519 6.12254 0.500519C7.6831 0.500519 9.18 1.11931 10.285 2.22124L11.5 3.43624L12.715 2.22124C13.8201 1.11931 15.317 0.500519 16.8775 0.500519C18.4381 0.500519 19.935 1.11931 21.04 2.22124C22.1365 3.32916 22.7515 4.82497 22.7515 6.38374C22.7515 7.9425 22.1365 9.43831 21.04 10.5462L12.2988 19.2987C12.1937 19.403 12.069 19.4855 11.9319 19.5415C11.7949 19.5975 11.6481 19.6258 11.5 19.625ZM6.12254 2.74999C5.6463 2.74783 5.17437 2.84019 4.73407 3.02172C4.29378 3.20324 3.89388 3.47032 3.55754 3.80749C2.87811 4.4905 2.49671 5.41472 2.49671 6.37811C2.49671 7.34151 2.87811 8.26573 3.55754 8.94874L11.5 16.9025L19.4425 8.94874C20.122 8.26573 20.5034 7.34151 20.5034 6.37811C20.5034 5.41472 20.122 4.4905 19.4425 3.80749C18.7492 3.15241 17.8314 2.78745 16.8775 2.78745C15.9237 2.78745 15.0059 3.15241 14.3125 3.80749L12.2988 5.83249C12.1942 5.93793 12.0698 6.02163 11.9327 6.07874C11.7956 6.13586 11.6486 6.16526 11.5 6.16526C11.3515 6.16526 11.2045 6.13586 11.0674 6.07874C10.9303 6.02163 10.8059 5.93793 10.7013 5.83249L8.68754 3.80749C8.3512 3.47032 7.9513 3.20324 7.51101 3.02172C7.07071 2.84019 6.59878 2.74783 6.12254 2.74999V2.74999Z" fill="#F8F8F8"/>
</svg>
